<svg xmlns="http://www.w3.org/2000/svg" viewBox="0 0 1200 800" role="img" aria-label="Abstract dashboard illustration">
  <defs>
    <linearGradient id="bg" x1="0" y1="0" x2="1" y2="1">
      <stop offset="0%" stop-color="#6070ff"/>
      <stop offset="100%" stop-color="#2230d2"/>
    </linearGradient>
  </defs>
  <rect width="1200" height="800" rx="40" fill="#f4f5f7"/>
  <rect x="80" y="80" width="1040" height="640" rx="32" fill="url(#bg)"/>
  <rect x="140" y="140" width="360" height="32" rx="16" fill="#ffffff" opacity="0.9"/>
  <rect x="140" y="200" width="440" height="220" rx="24" fill="#ffffff" opacity="0.16"/>
  <rect x="620" y="200" width="460" height="120" rx="24" fill="#ffffff" opacity="0.16"/>
  <rect x="620" y="340" width="460" height="160" rx="24" fill="#ffffff" opacity="0.16"/>
  <rect x="140" y="460" width="940" height="160" rx="24" fill="#ffffff" opacity="0.16"/>
  <circle cx="270" cy="310" r="70" fill="#f5f5f5" opacity="0.92"/>
  <path d="M270 240 a70 70 0 1 1 -48 120" fill="none" stroke="#7f8cff" stroke-width="16" stroke-linecap="round"/>
  <rect x="700" y="250" width="320" height="18" rx="9" fill="#f5f5f5" opacity="0.85"/>
  <rect x="700" y="284" width="260" height="18" rx="9" fill="#f5f5f5" opacity="0.7"/>
  <rect x="700" y="390" width="320" height="18" rx="9" fill="#f5f5f5" opacity="0.85"/>
  <rect x="700" y="424" width="180" height="18" rx="9" fill="#f5f5f5" opacity="0.7"/>
</svg>
